<?xml version="1.0" encoding="UTF-8" standalone="no"?>
<!-- Generated by IcoMoon.io -->

<svg
   xmlns:dc="http://purl.org/dc/elements/1.1/"
   xmlns:cc="http://creativecommons.org/ns#"
   xmlns:rdf="http://www.w3.org/1999/02/22-rdf-syntax-ns#"
   xmlns:svg="http://www.w3.org/2000/svg"
   xmlns="http://www.w3.org/2000/svg"
   xmlns:sodipodi="http://sodipodi.sourceforge.net/DTD/sodipodi-0.dtd"
   xmlns:inkscape="http://www.inkscape.org/namespaces/inkscape"
   version="1.1"
   width="1024"
   height="1024"
   viewBox="0 0 1024 1024"
   id="svg2"
   inkscape:version="0.48.2 r9819"
   sodipodi:docname="podbe.svg">
  <metadata
     id="metadata12">
    <rdf:RDF>
      <cc:Work
         rdf:about="">
        <dc:format>image/svg+xml</dc:format>
        <dc:type
           rdf:resource="http://purl.org/dc/dcmitype/StillImage" />
        <dc:title></dc:title>
      </cc:Work>
    </rdf:RDF>
  </metadata>
  <defs
     id="defs10" />
  <sodipodi:namedview
     pagecolor="#ffffff"
     bordercolor="#666666"
     borderopacity="1"
     objecttolerance="10"
     gridtolerance="10"
     guidetolerance="10"
     inkscape:pageopacity="0"
     inkscape:pageshadow="2"
     inkscape:window-width="1247"
     inkscape:window-height="681"
     id="namedview8"
     showgrid="false"
     inkscape:zoom="0.28688216"
     inkscape:cx="955.80692"
     inkscape:cy="695.67007"
     inkscape:window-x="20"
     inkscape:window-y="0"
     inkscape:window-maximized="0"
     inkscape:current-layer="svg2" />
  <rect
     ry="70.769707"
     rx="65.572548"
     y="1625.3954"
     x="-132.4537"
     height="985.24561"
     width="978.99023"
     id="rect4036"
     style="fill:#000000;fill-opacity:1;fill-rule:evenodd;stroke:none" />
  <rect
     ry="143.53008"
     rx="143.53008"
     y="25.714138"
     x="1944.8469"
     height="985.24561"
     width="978.99023"
     id="rect3896"
     style="fill:#000000;fill-opacity:1;fill-rule:evenodd;stroke:none" />
  <g
     transform="translate(1959.3328,-38.97877)"
     id="g3898">
    <g
       id="g3900"
       transform="matrix(0.75934271,0,0,0.78820903,147.7449,223.23161)"
       style="stroke:none">
      <path
         sodipodi:nodetypes="zccccccccz"
         inkscape:connector-curvature="0"
         id="path3902"
         d="m 516.08104,148.2261 c -48.48034,0 -359.69285,772.55768 -359.69285,772.55768 l 43.7887,0 303.39309,-700.61911 0,710.28614 50.04423,-0.28373 -18.76659,-716.25794 308.35835,706.59091 53.63136,0.0878 c 0,0 -332.27595,-772.36177 -380.75629,-772.36177 z"
         style="fill:#ffffff;fill-opacity:1;stroke:none" />
      <path
         sodipodi:open="true"
         sodipodi:end="12.275621"
         sodipodi:start="6.0055418"
         d="m 556.90414,124.9151 c 6.67559,22.44678 -6.90065,45.82965 -30.32339,52.22709 -23.42273,6.39744 -47.82224,-6.61313 -54.49783,-29.05991 -6.67559,-22.44679 6.90065,-45.82965 30.32339,-52.227095 23.20596,-6.338232 47.41841,6.374175 54.33578,28.528245"
         sodipodi:ry="42.261967"
         sodipodi:rx="44.099445"
         sodipodi:cy="136.49869"
         sodipodi:cx="514.49353"
         id="path3904"
         style="fill:#ffffff;fill-opacity:1;fill-rule:evenodd;stroke:none"
         sodipodi:type="arc" />
    </g>
    <path
       style="fill:#ffffff;fill-opacity:1;stroke:none"
       d="m 462.2916,523.86441 82.49258,14.83135 80.20111,-17.30325 6.87439,32.13462 -75.6182,17.30325 -112.28156,-17.30325 z"
       id="path3906"
       inkscape:connector-curvature="0"
       sodipodi:nodetypes="ccccccc" />
    <path
       inkscape:connector-curvature="0"
       id="path3908"
       d="m 411.87948,620.26826 132.9047,24.71893 121.44739,-29.66272 9.16584,34.60651 -119.15593,27.19083 -151.23639,-22.24704 z"
       style="fill:#ffffff;fill-opacity:1;stroke:none"
       sodipodi:nodetypes="ccccccc" />
    <path
       style="fill:#ffffff;fill-opacity:1;stroke:none"
       d="m 371.24743,719.77746 173.53675,29.02927 158.11076,-37.07841 20.62314,39.55031 -176.44245,37.07839 -190.80546,-29.02926 z"
       id="path3910"
       inkscape:connector-curvature="0"
       sodipodi:nodetypes="ccccccc" />
  </g>
  <g
     id="g3912"
     transform="translate(1959.3328,-38.97877)">
    <g
       style="stroke:none"
       transform="matrix(0.75934271,0,0,0.78820903,147.7449,223.23161)"
       id="g3914">
      <path
         style="fill:#ffffff;fill-opacity:1;stroke:none"
         d="m 516.08104,148.2261 c -48.48034,0 -359.69285,772.55768 -359.69285,772.55768 l 43.7887,0 303.39309,-700.61911 0,710.28614 50.04423,-0.28373 -18.76659,-716.25794 308.35835,706.59091 53.63136,0.0878 c 0,0 -332.27595,-772.36177 -380.75629,-772.36177 z"
         id="path3916"
         inkscape:connector-curvature="0"
         sodipodi:nodetypes="zccccccccz" />
      <path
         sodipodi:type="arc"
         style="fill:#ffffff;fill-opacity:1;fill-rule:evenodd;stroke:none"
         id="path3918"
         sodipodi:cx="514.49353"
         sodipodi:cy="136.49869"
         sodipodi:rx="44.099445"
         sodipodi:ry="42.261967"
         d="m 556.90414,124.9151 c 6.67559,22.44678 -6.90065,45.82965 -30.32339,52.22709 -23.42273,6.39744 -47.82224,-6.61313 -54.49783,-29.05991 -6.67559,-22.44679 6.90065,-45.82965 30.32339,-52.227095 23.20596,-6.338232 47.41841,6.374175 54.33578,28.528245"
         sodipodi:start="6.0055418"
         sodipodi:end="12.275621"
         sodipodi:open="true" />
    </g>
    <path
       sodipodi:nodetypes="ccccccc"
       inkscape:connector-curvature="0"
       id="path3920"
       d="m 462.2916,523.86441 82.49258,14.83135 80.20111,-17.30325 6.87439,32.13462 -75.6182,17.30325 -112.28156,-17.30325 z"
       style="fill:#ffffff;fill-opacity:1;stroke:none" />
    <path
       sodipodi:nodetypes="ccccccc"
       style="fill:#ffffff;fill-opacity:1;stroke:none"
       d="m 411.87948,620.26826 132.9047,24.71893 121.44739,-29.66272 9.16584,34.60651 -119.15593,27.19083 -151.23639,-22.24704 z"
       id="path3922"
       inkscape:connector-curvature="0" />
    <path
       sodipodi:nodetypes="ccccccc"
       inkscape:connector-curvature="0"
       id="path3924"
       d="m 371.24743,719.77746 173.53675,29.02927 158.11076,-37.07841 20.62314,39.55031 -176.44245,37.07839 -190.80546,-29.02926 z"
       style="fill:#ffffff;fill-opacity:1;stroke:none" />
  </g>
  <g
     id="g5010" />
  <g
     id="g5013"
     style="fill:#000000"
     transform="translate(1937.5869,1090.4357)">
    <path
       id="path5015"
       style="fill:#000000;fill-opacity:1;stroke:none"
       d="m 752.90625,400.625 55.84375,132.84375 -53.4375,11.5625 z m -23.75,4.9375 -0.84375,139.15625 -53.21875,-9.59375 z m 92.59375,158.84375 26.8125,63.78125 -91.5,22.34375 L 755.875,579.5 z m -159.25,0.90625 65.65625,10.125 -0.4375,75.34375 -93.625,-17.40625 z M 862.53125,661.4375 888.6875,723.625 758.78125,754.09375 757.625,685.375 z m -242.0625,4.625 107.0625,15.75 -0.4375,72.96875 -134.28125,-22.4375 z M 759.4375,794.34375 905.5,763.65625 l 81.5625,193.90625 12.44249,-0.0431 c -0.0389,23.29764 -27.86576,50.8418 -64.19296,50.8418 l 0,0 -172.33289,0 m -38.0132,0 -637.499044,0 c -36.327191,0 -65.572548,-31.56333 -65.572548,-70.76975 l 0,-843.706192 c 0,-39.206418 29.245357,-70.769707 65.572548,-70.769707 l 847.845134,0 c 36.3272,0 65.56147,31.563291 65.57257,70.769707 l 0.2364,834.485802 -0.089,0.1029 C 941.82694,788.43055 808.47555,443.90143 756.4375,367.06249 c 11.51643,-7.88232 17.26229,-22.44916 13.21875,-36.5625 l -0.125,-0.4375 c -4.43193,-14.73359 -18.2168,-24.162 -33,-23.74999 -2.73763,0.0763 -5.49668,0.50065 -8.25,1.28125 -17.78589,5.04252 -28.10031,23.46349 -23.03125,41.15625 2.45957,8.58475 8.07547,15.409 15.25,19.59375 C 653.93553,472.33769 465.53125,957.8125 465.53125,957.8125 l 33.25,0 77.78125,-186.46875 150.28125,22.875"
       inkscape:connector-curvature="0"
       sodipodi:nodetypes="ccccccccccccccccccccccccccccccccscccssssssccccccssccccc" />
  </g>
  <g
     id="g5057">
    <path
       id="path5030"
       style="fill:#000000;stroke:#000000;stroke-width:1.41001368px;stroke-linecap:butt;stroke-linejoin:miter;stroke-opacity:1"
       d="m 634.37036,159.02564 18.03574,5.64734 c 0,0 46.4706,-71.478644 147.16413,-32.5142 100.69356,38.96442 95.38342,119.49756 95.38342,119.49756 l 18.24495,6.67499 c 0,0 2.14858,-98.51103 -110.0284,-140.3752 C 684.428,73.641805 634.37036,159.02567 634.37036,159.02567 z m 51.93984,43.50557 15.79889,5.14636 c 0,0 25.16108,-38.22254 76.26594,-18.65613 51.10487,19.56643 52.21943,63.76879 52.21943,63.76879 l 14.01097,6.14398 c 0,0 2.09356,-59.02384 -61.57427,-82.86074 -67.39402,-25.23199 -96.72096,26.45774 -96.72096,26.45774 z m 22.20415,47.2137 9.79042,3.16204 c 0,0 16.33443,-26.33849 47.95696,-14.13695 31.62254,12.20156 31.61215,42.05561 31.61215,42.05561 l 8.6572,3.87213 c 0,0 2.25218,-39.93614 -37.15267,-54.77251 -41.71103,-15.7047 -60.86406,19.81968 -60.86406,19.81968 z m 44.3919,150.88009 55.84375,132.84375 -53.4375,11.5625 z m -23.75,4.9375 -0.84375,139.15625 -53.21875,-9.59375 z m 92.59375,158.84375 26.8125,63.78125 -91.5,22.34375 L 755.875,579.5 z m -159.25,0.90625 65.65625,10.125 -0.4375,75.34375 -93.625,-17.40625 z M 862.53125,661.4375 888.6875,723.625 758.78125,754.09375 757.625,685.375 z m -242.0625,4.625 107.0625,15.75 -0.4375,72.96875 -134.28125,-22.4375 z M 759.4375,794.34375 905.5,763.65625 l 81.5625,193.90625 12.93644,0.13701 c -0.039,23.29764 -28.35971,50.66169 -64.68691,50.66169 l 0,0 -172.33289,0 m -38.0132,0 -637.499044,0 c -36.327191,0 -65.572548,-31.56333 -65.572548,-70.76975 l 0,-843.706192 c 0,-39.206418 29.245357,-70.769707 65.572548,-70.769707 l 847.845134,0 c 36.3272,0 65.56147,31.563291 65.57257,70.769707 l 0.2364,834.485802 -0.089,0.1029 C 941.82694,788.43055 808.47555,443.90143 756.4375,367.06249 c 11.51643,-7.88232 17.26229,-22.44916 13.21875,-36.5625 l -0.125,-0.4375 c -4.43193,-14.73359 -18.2168,-24.162 -33,-23.74999 -2.73763,0.0763 -5.49668,0.50065 -8.25,1.28125 -17.78589,5.04252 -28.10031,23.46349 -23.03125,41.15625 2.45957,8.58475 8.07547,15.409 15.25,19.59375 C 653.93553,472.33769 465.53125,957.8125 465.53125,957.8125 l 33.25,0 77.78125,-186.46875 150.28125,22.875" />
  </g>
</svg>
