<?xml version="1.0" encoding="UTF-8" standalone="no"?>
<!-- Generated by IcoMoon.io -->

<svg
   xmlns:dc="http://purl.org/dc/elements/1.1/"
   xmlns:cc="http://creativecommons.org/ns#"
   xmlns:rdf="http://www.w3.org/1999/02/22-rdf-syntax-ns#"
   xmlns:svg="http://www.w3.org/2000/svg"
   xmlns="http://www.w3.org/2000/svg"
   xmlns:sodipodi="http://sodipodi.sourceforge.net/DTD/sodipodi-0.dtd"
   xmlns:inkscape="http://www.inkscape.org/namespaces/inkscape"
   version="1.1"
   width="1024"
   height="1024"
   viewBox="0 0 1024 1024"
   id="svg2"
   inkscape:version="0.48.2 r9819"
   sodipodi:docname="ne.svg">
  <metadata
     id="metadata12">
    <rdf:RDF>
      <cc:Work
         rdf:about="">
        <dc:format>image/svg+xml</dc:format>
        <dc:type
           rdf:resource="http://purl.org/dc/dcmitype/StillImage" />
        <dc:title></dc:title>
      </cc:Work>
    </rdf:RDF>
  </metadata>
  <defs
     id="defs10" />
  <sodipodi:namedview
     pagecolor="#ffffff"
     bordercolor="#666666"
     borderopacity="1"
     objecttolerance="10"
     gridtolerance="10"
     guidetolerance="10"
     inkscape:pageopacity="0"
     inkscape:pageshadow="2"
     inkscape:window-width="1247"
     inkscape:window-height="681"
     id="namedview8"
     showgrid="false"
     inkscape:zoom="0.071720541"
     inkscape:cx="925.91959"
     inkscape:cy="216.42421"
     inkscape:window-x="20"
     inkscape:window-y="0"
     inkscape:window-maximized="0"
     inkscape:current-layer="svg2" />
  <g
     id="g5010" />
  <g
     id="g5057">
    <path
       id="path5030"
       style="fill:#000000;stroke:#000000;stroke-width:1.41001368px;stroke-linecap:butt;stroke-linejoin:miter;stroke-opacity:1"
       d="m 634.37036,159.02564 18.03574,5.64734 c 0,0 46.4706,-71.478644 147.16413,-32.5142 100.69356,38.96442 95.38342,119.49756 95.38342,119.49756 l 18.24495,6.67499 c 0,0 2.14858,-98.51103 -110.0284,-140.3752 C 684.428,73.641805 634.37036,159.02567 634.37036,159.02567 z m 51.93984,43.50557 15.79889,5.14636 c 0,0 25.16108,-38.22254 76.26594,-18.65613 51.10487,19.56643 52.21943,63.76879 52.21943,63.76879 l 14.01097,6.14398 c 0,0 2.09356,-59.02384 -61.57427,-82.86074 -67.39402,-25.23199 -96.72096,26.45774 -96.72096,26.45774 z m 22.20415,47.2137 9.79042,3.16204 c 0,0 16.33443,-26.33849 47.95696,-14.13695 31.62254,12.20156 31.61215,42.05561 31.61215,42.05561 l 8.6572,3.87213 c 0,0 2.25218,-39.93614 -37.15267,-54.77251 -41.71103,-15.7047 -60.86406,19.81968 -60.86406,19.81968 z m 44.3919,150.88009 55.84375,132.84375 -53.4375,11.5625 z m -23.75,4.9375 -0.84375,139.15625 -53.21875,-9.59375 z m 92.59375,158.84375 26.8125,63.78125 -91.5,22.34375 L 755.875,579.5 z m -159.25,0.90625 65.65625,10.125 -0.4375,75.34375 -93.625,-17.40625 z M 862.53125,661.4375 888.6875,723.625 758.78125,754.09375 757.625,685.375 z m -242.0625,4.625 107.0625,15.75 -0.4375,72.96875 -134.28125,-22.4375 z M 759.4375,794.34375 905.5,763.65625 l 81.5625,193.90625 12.93644,0.13701 c -0.039,23.29764 -28.35971,50.66169 -64.68691,50.66169 l 0,0 -172.33289,0 m -38.0132,0 -637.499044,0 c -36.327191,0 -65.572548,-31.56333 -65.572548,-70.76975 l 0,-843.706192 c 0,-39.206418 29.245357,-70.769707 65.572548,-70.769707 l 847.845134,0 c 36.3272,0 65.56147,31.563291 65.57257,70.769707 l 0.2364,834.485802 -0.089,0.1029 C 941.82694,788.43055 808.47555,443.90143 756.4375,367.06249 c 11.51643,-7.88232 17.26229,-22.44916 13.21875,-36.5625 l -0.125,-0.4375 c -4.43193,-14.73359 -18.2168,-24.162 -33,-23.74999 -2.73763,0.0763 -5.49668,0.50065 -8.25,1.28125 -17.78589,5.04252 -28.10031,23.46349 -23.03125,41.15625 2.45957,8.58475 8.07547,15.409 15.25,19.59375 C 653.93553,472.33769 465.53125,957.8125 465.53125,957.8125 l 33.25,0 77.78125,-186.46875 150.28125,22.875" />
  </g>
</svg>
